<svg xmlns="http://www.w3.org/2000/svg" width="300" height="270" viewBox="0 0 300 270"><ellipse cx="151" cy="235" rx="94" ry="17" fill="#6C4CF1" opacity=".10"/><path d="m70 92 71-47 86 53-17 94-83 33-67-57 10-76 140 100M141 45l-14 180m100-127L60 168m10-76 57 133M141 45l69 147" fill="none" stroke="#AE9DD2" stroke-width="5"/><g fill="#7759AD"><circle cx="70" cy="92" r="22"/><circle cx="141" cy="45" r="24"/><circle cx="227" cy="98" r="23"/><circle cx="210" cy="192" r="24"/><circle cx="127" cy="225" r="19"/><circle cx="60" cy="168" r="19"/></g><circle cx="146" cy="133" r="34" fill="#9BD7CF"/><circle cx="137" cy="123" r="17" fill="#C6EAE0"/></svg>