<svg xmlns="http://www.w3.org/2000/svg" width="1440" height="1000" viewBox="0 0 1440 1000"><rect width="100%" height="100%" fill="#F7F9FC"/><rect x="0" y="-1708" width="1425" height="7966" rx="0" fill="rgb(247, 249, 252)" stroke="none"/><rect x="0" y="0" width="240" height="1000" rx="0" fill="rgb(255, 255, 255)" stroke="none"/><rect x="16" y="27.375" width="39" height="39" rx="10" fill="rgb(237, 241, 255)" stroke="none"/><svg x="23" y="34.375" width="25" height="25" viewBox="0 0 24 24" fill="none" stroke="rgb(51, 75, 168)" stroke-width="1.6px" color="rgb(51, 75, 168)"><path d="M12 5c-3-2-7-2-10-1v15c3-1 7-1 10 1 3-2 7-2 10-1V4c-3-1-7-1-10 1Zm0 0v15"></path></svg><text x="66" y="41.512" fill="rgb(31, 41, 55)" font-family="Arial, sans-serif" font-size="19.2px" font-weight="750">A</text><text x="83.25" y="41.512" fill="rgb(31, 41, 55)" font-family="Arial, sans-serif" font-size="19.2px" font-weight="750">Literacia</text><text x="66" y="62.736850000000004" fill="rgb(100, 116, 139)" font-family="Arial, sans-serif" font-size="8.96px" font-weight="650">APRENDER</text><text x="124.859375" y="62.736850000000004" fill="rgb(100, 116, 139)" font-family="Arial, sans-serif" font-size="8.96px" font-weight="650">PARA</text><text x="156.140625" y="62.736850000000004" fill="rgb(100, 116, 139)" font-family="Arial, sans-serif" font-size="8.96px" font-weight="650">A</text><text x="167.0625" y="62.736850000000004" fill="rgb(100, 116, 139)" font-family="Arial, sans-serif" font-size="8.96px" font-weight="650">VIDA</text><svg x="28" y="104.765625" width="18" height="18" viewBox="0 0 24 24" fill="none" stroke="rgb(88, 102, 123)" stroke-width="1.6px" color="rgb(88, 102, 123)"><path d="m3 10 9-8 9 8v11h-6v-7H9v7H3Z"></path></svg><text x="57" y="116.2459" fill="rgb(88, 102, 123)" font-family="Arial, sans-serif" font-size="13.44px" font-weight="400">Início</text><text x="28" y="166.021625" fill="rgb(121, 131, 151)" font-family="Arial, sans-serif" font-size="9.6px" font-weight="650">EXPLORAR</text><text x="88.4375" y="166.021625" fill="rgb(121, 131, 151)" font-family="Arial, sans-serif" font-size="9.6px" font-weight="650">LITERACIAS</text><svg x="28" y="194.109375" width="18" height="18" viewBox="0 0 24 24" fill="none" stroke="rgb(88, 102, 123)" stroke-width="1.6px" color="rgb(88, 102, 123)"><path d="M20 8V5H5a3 3 0 0 0 0 6h16v9H5a3 3 0 0 1-3-3V8m19 5h-5v4h5"></path></svg><text x="57" y="205.58965" fill="rgb(88, 102, 123)" font-family="Arial, sans-serif" font-size="13.44px" font-weight="400">Financeira</text><svg x="28" y="238.109375" width="18" height="18" viewBox="0 0 24 24" fill="none" stroke="rgb(88, 102, 123)" stroke-width="1.6px" color="rgb(88, 102, 123)"><rect x="2" y="3" width="20" height="14" rx="2"></rect><path d="M8 21h8m-4-4v4"></path></svg><text x="57" y="249.58965" fill="rgb(88, 102, 123)" font-family="Arial, sans-serif" font-size="13.44px" font-weight="400">Digital</text><svg x="28" y="282.109375" width="18" height="18" viewBox="0 0 24 24" fill="none" stroke="rgb(88, 102, 123)" stroke-width="1.6px" color="rgb(88, 102, 123)"><path d="M4 3v6m4-6v6M2 3v5a4 4 0 0 0 8 0V3M6 12v9M19 3c-4 3-4 8 0 9v9m0-18v9"></path></svg><text x="57" y="293.58965" fill="rgb(88, 102, 123)" font-family="Arial, sans-serif" font-size="13.44px" font-weight="400">Alimentar</text><svg x="28" y="326.109375" width="18" height="18" viewBox="0 0 24 24" fill="none" stroke="rgb(88, 102, 123)" stroke-width="1.6px" color="rgb(88, 102, 123)"><path d="M9 3h6m-5 0v6L4 19c-.5 1 0 2 2 2h12c2 0 2.5-1 2-2L14 9V3M7 15h10"></path></svg><text x="57" y="337.58965" fill="rgb(88, 102, 123)" font-family="Arial, sans-serif" font-size="13.44px" font-weight="400">Científica</text><svg x="28" y="370.109375" width="18" height="18" viewBox="0 0 24 24" fill="none" stroke="rgb(88, 102, 123)" stroke-width="1.6px" color="rgb(88, 102, 123)"><path d="M20 3C9 2 3 6 4 14c1 7 13 9 16-11ZM4 21 15 10"></path></svg><text x="57" y="381.58965" fill="rgb(88, 102, 123)" font-family="Arial, sans-serif" font-size="13.44px" font-weight="400">Ambiental</text><svg x="28" y="414.109375" width="18" height="18" viewBox="0 0 24 24" fill="none" stroke="rgb(88, 102, 123)" stroke-width="1.6px" color="rgb(88, 102, 123)"><path d="M12 3v18m-5 0h10M3 7l9-3 9 3M5 7l-4 8h8L5 7Zm14 0-4 8h8l-4-8Z"></path></svg><text x="57" y="425.58965" fill="rgb(88, 102, 123)" font-family="Arial, sans-serif" font-size="13.44px" font-weight="400">Jurídica</text><svg x="28" y="458.109375" width="18" height="18" viewBox="0 0 24 24" fill="none" stroke="rgb(88, 102, 123)" stroke-width="1.6px" color="rgb(88, 102, 123)"><rect x="3" y="3" width="18" height="18" rx="2"></rect><path d="M7 7h10M7 11h4v6H7zm8 0h2m-2 4h2m-2 3h2"></path></svg><text x="57" y="469.58965" fill="rgb(88, 102, 123)" font-family="Arial, sans-serif" font-size="13.44px" font-weight="400">Mediática</text><rect x="16" y="490.109375" width="207" height="42" rx="9" fill="rgb(237, 241, 255)" stroke="none"/><svg x="28" y="502.109375" width="18" height="18" viewBox="0 0 24 24" fill="none" stroke="rgb(51, 75, 168)" stroke-width="1.6px" color="rgb(51, 75, 168)"><path d="m2 8 10-6 10 6H2Zm2 3v7m5-7v7m6-7v7m5-7v7M2 22h20M3 19h18"></path></svg><text x="57" y="513.58965" fill="rgb(51, 75, 168)" font-family="Arial, sans-serif" font-size="13.44px" font-weight="650">Cívica</text><svg x="28" y="546.109375" width="18" height="18" viewBox="0 0 24 24" fill="none" stroke="rgb(88, 102, 123)" stroke-width="1.6px" color="rgb(88, 102, 123)"><path d="m12 3 2.5 6.5L21 12l-6.5 2.5L12 21l-2.5-6.5L3 12l6.5-2.5L12 3ZM20 2v4m-2-2h4"></path></svg><text x="57" y="557.58965" fill="rgb(88, 102, 123)" font-family="Arial, sans-serif" font-size="13.44px" font-weight="400">IA</text><svg x="28" y="595.25" width="18" height="18" viewBox="0 0 24 24" fill="none" stroke="rgb(88, 102, 123)" stroke-width="1.6px" color="rgb(88, 102, 123)"><path d="m12 2 9 4v6c0 5-6 8-9 10-3-2-9-5-9-10V6l9-4Z"></path><path d="m8 12 3 3 5-6"></path></svg><text x="57" y="597.667775" fill="rgb(88, 102, 123)" font-family="Arial, sans-serif" font-size="13.44px" font-weight="400">Segurança</text><text x="122.53125" y="597.667775" fill="rgb(88, 102, 123)" font-family="Arial, sans-serif" font-size="13.44px" font-weight="400">e</text><text x="57" y="615.8084" fill="rgb(88, 102, 123)" font-family="Arial, sans-serif" font-size="13.44px" font-weight="400">Autoproteção</text><rect x="26" y="647.390625" width="187" height="1" rx="0" fill="rgb(227, 232, 240)" stroke="none"/><svg x="28" y="672.390625" width="18" height="18" viewBox="0 0 24 24" fill="none" stroke="rgb(88, 102, 123)" stroke-width="1.6px" color="rgb(88, 102, 123)"><circle cx="12" cy="12" r="9"></circle><circle cx="12" cy="12" r="5"></circle><circle cx="12" cy="12" r="1"></circle></svg><text x="57" y="683.8709" fill="rgb(88, 102, 123)" font-family="Arial, sans-serif" font-size="13.44px" font-weight="400">Missões</text><svg x="28" y="716.390625" width="18" height="18" viewBox="0 0 24 24" fill="none" stroke="rgb(88, 102, 123)" stroke-width="1.6px" color="rgb(88, 102, 123)"><path d="M4 20V10m8 10V4m8 16v-7"></path></svg><text x="57" y="727.8709" fill="rgb(88, 102, 123)" font-family="Arial, sans-serif" font-size="13.44px" font-weight="400">Progresso</text><svg x="28" y="760.390625" width="18" height="18" viewBox="0 0 24 24" fill="none" stroke="rgb(88, 102, 123)" stroke-width="1.6px" color="rgb(88, 102, 123)"><circle cx="12" cy="8" r="6"></circle><path d="m8 13-2 9 6-3 6 3-2-9"></path></svg><text x="57" y="771.8709" fill="rgb(88, 102, 123)" font-family="Arial, sans-serif" font-size="13.44px" font-weight="400">Conquistas</text><svg x="28" y="804.390625" width="18" height="18" viewBox="0 0 24 24" fill="none" stroke="rgb(88, 102, 123)" stroke-width="1.6px" color="rgb(88, 102, 123)"><path d="M6 3h12v19l-6-4-6 4V3Z"></path></svg><text x="57" y="815.8709" fill="rgb(88, 102, 123)" font-family="Arial, sans-serif" font-size="13.44px" font-weight="400">Favoritos</text><svg x="28" y="878.8125" width="18" height="18" viewBox="0 0 24 24" fill="none" stroke="rgb(88, 102, 123)" stroke-width="1.6px" color="rgb(88, 102, 123)"><circle cx="12" cy="12" r="4"></circle><path d="M12 2v3m0 14v3M2 12h3m14 0h3M5 5l2 2m10 10 2 2M5 19l2-2M17 7l2-2"></path></svg><text x="57" y="890.292775" fill="rgb(88, 102, 123)" font-family="Arial, sans-serif" font-size="13.44px" font-weight="400">Definições</text><svg x="28" y="922.8125" width="18" height="18" viewBox="0 0 24 24" fill="none" stroke="rgb(88, 102, 123)" stroke-width="1.6px" color="rgb(88, 102, 123)"><rect x="2" y="3" width="20" height="18" rx="2"></rect><path d="M8 3v18"></path></svg><text x="57" y="934.292775" fill="rgb(88, 102, 123)" font-family="Arial, sans-serif" font-size="13.44px" font-weight="400">Recolher</text><text x="112" y="934.292775" fill="rgb(88, 102, 123)" font-family="Arial, sans-serif" font-size="13.44px" font-weight="400">menu</text><text x="28" y="976.1325" fill="rgb(100, 116, 139)" font-family="Arial, sans-serif" font-size="12px" font-weight="400">O</text><text x="40.328125" y="976.1325" fill="rgb(100, 116, 139)" font-family="Arial, sans-serif" font-size="12px" font-weight="400">teu</text><text x="60.75" y="976.1325" fill="rgb(100, 116, 139)" font-family="Arial, sans-serif" font-size="12px" font-weight="400">ritmo.</text><text x="95.140625" y="976.1325" fill="rgb(100, 116, 139)" font-family="Arial, sans-serif" font-size="12px" font-weight="400">O</text><text x="107.484375" y="976.1325" fill="rgb(100, 116, 139)" font-family="Arial, sans-serif" font-size="12px" font-weight="400">teu</text><text x="127.90625" y="976.1325" fill="rgb(100, 116, 139)" font-family="Arial, sans-serif" font-size="12px" font-weight="400">caminho.</text><rect x="282" y="-0.140625" width="807" height="105.546875" rx="14" fill="rgb(255, 255, 255)" stroke="rgb(227, 232, 240)"/><rect x="304" y="33.625" width="38" height="38" rx="11" fill="rgb(239, 246, 255)" stroke="none"/><text x="314.890625" y="54.468175" fill="rgb(29, 78, 216)" font-family="Arial, sans-serif" font-size="14.08px" font-weight="700">03</text><text x="356" y="27.702575" fill="rgb(29, 78, 216)" font-family="Arial, sans-serif" font-size="9.12px" font-weight="700">ETAPA</text><text x="393.15625" y="27.702575" fill="rgb(29, 78, 216)" font-family="Arial, sans-serif" font-size="9.12px" font-weight="700">3</text><text x="356" y="50.958075" fill="rgb(31, 41, 55)" font-family="Arial, sans-serif" font-size="17.92px" font-weight="700">Cavalheirismo</text><text x="470.28125" y="50.958075" fill="rgb(31, 41, 55)" font-family="Arial, sans-serif" font-size="17.92px" font-weight="700">Contemporâneo</text><text x="356" y="76.9455" fill="rgb(89, 103, 125)" font-family="Arial, sans-serif" font-size="12.8px" font-weight="400">Consideração</text><text x="435.8125" y="76.9455" fill="rgb(89, 103, 125)" font-family="Arial, sans-serif" font-size="12.8px" font-weight="400">de</text><text x="453.546875" y="76.9455" fill="rgb(89, 103, 125)" font-family="Arial, sans-serif" font-size="12.8px" font-weight="400">pessoa</text><text x="496.15625" y="76.9455" fill="rgb(89, 103, 125)" font-family="Arial, sans-serif" font-size="12.8px" font-weight="400">para</text><text x="524.65625" y="76.9455" fill="rgb(89, 103, 125)" font-family="Arial, sans-serif" font-size="12.8px" font-weight="400">pessoa.</text><rect x="1029.609375" y="38.15625" width="37.390625" height="28.9375" rx="20" fill="none" stroke="rgb(227, 232, 240)"/><text x="1039.609375" y="54.33865" fill="rgb(89, 103, 125)" font-family="Arial, sans-serif" font-size="11.84px" font-weight="400">0/2</text><rect x="306" y="169.21875" width="63" height="63" rx="22" fill="rgb(255, 255, 255)" stroke="color(srgb 0.689804 0.757059 0.946471)"/><text x="327" y="202.3114" fill="rgb(29, 78, 216)" font-family="Arial, sans-serif" font-size="18.24px" font-weight="700">05</text><rect x="389" y="136.40625" width="700" height="128.625" rx="14" fill="rgb(255, 255, 255)" stroke="rgb(227, 232, 240)"/><text x="410" y="163.66225" fill="rgb(108, 121, 144)" font-family="Arial, sans-serif" font-size="9.6px" font-weight="600">LIÇÃO</text><text x="443.8125" y="163.66225" fill="rgb(108, 121, 144)" font-family="Arial, sans-serif" font-size="9.6px" font-weight="600">5</text><text x="453.125" y="163.66225" fill="rgb(108, 121, 144)" font-family="Arial, sans-serif" font-size="9.6px" font-weight="600">·</text><text x="459.421875" y="163.66225" fill="rgb(108, 121, 144)" font-family="Arial, sans-serif" font-size="9.6px" font-weight="600">3</text><text x="468.734375" y="163.66225" fill="rgb(108, 121, 144)" font-family="Arial, sans-serif" font-size="9.6px" font-weight="600">MIN</text><text x="410" y="189.51" fill="rgb(31, 41, 55)" font-family="Arial, sans-serif" font-size="16px" font-weight="650">Gentileza</text><text x="484.375" y="189.51" fill="rgb(31, 41, 55)" font-family="Arial, sans-serif" font-size="16px" font-weight="650">não</text><text x="516.859375" y="189.51" fill="rgb(31, 41, 55)" font-family="Arial, sans-serif" font-size="16px" font-weight="650">cria</text><text x="548.53125" y="189.51" fill="rgb(31, 41, 55)" font-family="Arial, sans-serif" font-size="16px" font-weight="650">dívida</text><text x="410" y="215.62695" fill="rgb(89, 103, 125)" font-family="Arial, sans-serif" font-size="13.12px" font-weight="400">Um</text><text x="433.90625" y="215.62695" fill="rgb(89, 103, 125)" font-family="Arial, sans-serif" font-size="13.12px" font-weight="400">gesto</text><text x="469.78125" y="215.62695" fill="rgb(89, 103, 125)" font-family="Arial, sans-serif" font-size="13.12px" font-weight="400">de</text><text x="487.96875" y="215.62695" fill="rgb(89, 103, 125)" font-family="Arial, sans-serif" font-size="13.12px" font-weight="400">cuidado</text><text x="538.03125" y="215.62695" fill="rgb(89, 103, 125)" font-family="Arial, sans-serif" font-size="13.12px" font-weight="400">não</text><text x="563.421875" y="215.62695" fill="rgb(89, 103, 125)" font-family="Arial, sans-serif" font-size="13.12px" font-weight="400">obriga</text><text x="604.546875" y="215.62695" fill="rgb(89, 103, 125)" font-family="Arial, sans-serif" font-size="13.12px" font-weight="400">a</text><text x="614.8125" y="215.62695" fill="rgb(89, 103, 125)" font-family="Arial, sans-serif" font-size="13.12px" font-weight="400">outra</text><text x="649.203125" y="215.62695" fill="rgb(89, 103, 125)" font-family="Arial, sans-serif" font-size="13.12px" font-weight="400">pessoa</text><text x="692.875" y="215.62695" fill="rgb(89, 103, 125)" font-family="Arial, sans-serif" font-size="13.12px" font-weight="400">a</text><text x="703.140625" y="215.62695" fill="rgb(89, 103, 125)" font-family="Arial, sans-serif" font-size="13.12px" font-weight="400">dar</text><text x="725.703125" y="215.62695" fill="rgb(89, 103, 125)" font-family="Arial, sans-serif" font-size="13.12px" font-weight="400">atenção,</text><text x="777.96875" y="215.62695" fill="rgb(89, 103, 125)" font-family="Arial, sans-serif" font-size="13.12px" font-weight="400">afeto</text><text x="811.34375" y="215.62695" fill="rgb(89, 103, 125)" font-family="Arial, sans-serif" font-size="13.12px" font-weight="400">ou</text><text x="830.046875" y="215.62695" fill="rgb(89, 103, 125)" font-family="Arial, sans-serif" font-size="13.12px" font-weight="400">recompensa.</text><text x="410" y="241.25045" fill="rgb(29, 78, 216)" font-family="Arial, sans-serif" font-size="10.72px" font-weight="650">→</text><text x="422.203125" y="241.25045" fill="rgb(29, 78, 216)" font-family="Arial, sans-serif" font-size="10.72px" font-weight="650">Disponível</text><rect x="306" y="327.84375" width="63" height="63" rx="22" fill="rgb(255, 255, 255)" stroke="color(srgb 0.689804 0.757059 0.946471)"/><text x="327" y="360.9364" fill="rgb(29, 78, 216)" font-family="Arial, sans-serif" font-size="18.24px" font-weight="700">06</text><rect x="389" y="295.03125" width="700" height="128.625" rx="14" fill="rgb(255, 255, 255)" stroke="rgb(227, 232, 240)"/><text x="410" y="322.28725" fill="rgb(108, 121, 144)" font-family="Arial, sans-serif" font-size="9.6px" font-weight="600">LIÇÃO</text><text x="443.8125" y="322.28725" fill="rgb(108, 121, 144)" font-family="Arial, sans-serif" font-size="9.6px" font-weight="600">6</text><text x="453.15625" y="322.28725" fill="rgb(108, 121, 144)" font-family="Arial, sans-serif" font-size="9.6px" font-weight="600">·</text><text x="459.453125" y="322.28725" fill="rgb(108, 121, 144)" font-family="Arial, sans-serif" font-size="9.6px" font-weight="600">3</text><text x="468.765625" y="322.28725" fill="rgb(108, 121, 144)" font-family="Arial, sans-serif" font-size="9.6px" font-weight="600">MIN</text><text x="410" y="348.135" fill="rgb(31, 41, 55)" font-family="Arial, sans-serif" font-size="16px" font-weight="650">Ajuda</text><text x="458.40625" y="348.135" fill="rgb(31, 41, 55)" font-family="Arial, sans-serif" font-size="16px" font-weight="650">que</text><text x="491.0625" y="348.135" fill="rgb(31, 41, 55)" font-family="Arial, sans-serif" font-size="16px" font-weight="650">respeita</text><text x="555.4375" y="348.135" fill="rgb(31, 41, 55)" font-family="Arial, sans-serif" font-size="16px" font-weight="650">um</text><text x="584.1875" y="348.135" fill="rgb(31, 41, 55)" font-family="Arial, sans-serif" font-size="16px" font-weight="650">não</text><text x="410" y="374.25195" fill="rgb(89, 103, 125)" font-family="Arial, sans-serif" font-size="13.12px" font-weight="400">Oferecer</text><text x="463.34375" y="374.25195" fill="rgb(89, 103, 125)" font-family="Arial, sans-serif" font-size="13.12px" font-weight="400">ajuda</text><text x="498.625" y="374.25195" fill="rgb(89, 103, 125)" font-family="Arial, sans-serif" font-size="13.12px" font-weight="400">é</text><text x="509.078125" y="374.25195" fill="rgb(89, 103, 125)" font-family="Arial, sans-serif" font-size="13.12px" font-weight="400">abrir</text><text x="539.359375" y="374.25195" fill="rgb(89, 103, 125)" font-family="Arial, sans-serif" font-size="13.12px" font-weight="400">uma</text><text x="568.359375" y="374.25195" fill="rgb(89, 103, 125)" font-family="Arial, sans-serif" font-size="13.12px" font-weight="400">possibilidade,</text><text x="650.734375" y="374.25195" fill="rgb(89, 103, 125)" font-family="Arial, sans-serif" font-size="13.12px" font-weight="400">não</text><text x="676.125" y="374.25195" fill="rgb(89, 103, 125)" font-family="Arial, sans-serif" font-size="13.12px" font-weight="400">decidir</text><text x="719" y="374.25195" fill="rgb(89, 103, 125)" font-family="Arial, sans-serif" font-size="13.12px" font-weight="400">pela</text><text x="747.03125" y="374.25195" fill="rgb(89, 103, 125)" font-family="Arial, sans-serif" font-size="13.12px" font-weight="400">outra</text><text x="781.40625" y="374.25195" fill="rgb(89, 103, 125)" font-family="Arial, sans-serif" font-size="13.12px" font-weight="400">pessoa.</text><text x="410" y="399.87545" fill="rgb(29, 78, 216)" font-family="Arial, sans-serif" font-size="10.72px" font-weight="650">→</text><text x="422.203125" y="399.87545" fill="rgb(29, 78, 216)" font-family="Arial, sans-serif" font-size="10.72px" font-weight="650">Disponível</text><rect x="314" y="458.921875" width="44" height="44" rx="50" fill="rgb(240, 243, 248)" stroke="rgb(170, 184, 203)"/><text x="329.5" y="483.885" fill="rgb(114, 130, 155)" font-family="Arial, sans-serif" font-size="16px" font-weight="400">◇</text><text x="374" y="472.52665" fill="rgb(98, 115, 142)" font-family="Arial, sans-serif" font-size="12.64px" font-weight="650">Checkpoint</text><text x="444.671875" y="472.52665" fill="rgb(98, 115, 142)" font-family="Arial, sans-serif" font-size="12.64px" font-weight="650">da</text><text x="462.78125" y="472.52665" fill="rgb(98, 115, 142)" font-family="Arial, sans-serif" font-size="12.64px" font-weight="650">etapa</text><text x="374" y="497.4324" fill="rgb(89, 103, 125)" font-family="Arial, sans-serif" font-size="11.84px" font-weight="400">Conclui</text><text x="416.109375" y="497.4324" fill="rgb(89, 103, 125)" font-family="Arial, sans-serif" font-size="11.84px" font-weight="400">as</text><text x="430.40625" y="497.4324" fill="rgb(89, 103, 125)" font-family="Arial, sans-serif" font-size="11.84px" font-weight="400">2</text><text x="440.03125" y="497.4324" fill="rgb(89, 103, 125)" font-family="Arial, sans-serif" font-size="11.84px" font-weight="400">lições</text><text x="472.625" y="497.4324" fill="rgb(89, 103, 125)" font-family="Arial, sans-serif" font-size="11.84px" font-weight="400">desta</text><text x="504.09375" y="497.4324" fill="rgb(89, 103, 125)" font-family="Arial, sans-serif" font-size="11.84px" font-weight="400">etapa.</text><rect x="282" y="541.1875" width="807" height="105.546875" rx="14" fill="rgb(255, 255, 255)" stroke="rgb(227, 232, 240)"/><rect x="304" y="574.953125" width="38" height="38" rx="11" fill="rgb(239, 246, 255)" stroke="none"/><text x="314.890625" y="595.7963" fill="rgb(29, 78, 216)" font-family="Arial, sans-serif" font-size="14.08px" font-weight="700">04</text><text x="356" y="569.0307" fill="rgb(29, 78, 216)" font-family="Arial, sans-serif" font-size="9.12px" font-weight="700">ETAPA</text><text x="393.15625" y="569.0307" fill="rgb(29, 78, 216)" font-family="Arial, sans-serif" font-size="9.12px" font-weight="700">4</text><text x="356" y="592.2862" fill="rgb(31, 41, 55)" font-family="Arial, sans-serif" font-size="17.92px" font-weight="700">Etiqueta</text><text x="425.140625" y="592.2862" fill="rgb(31, 41, 55)" font-family="Arial, sans-serif" font-size="17.92px" font-weight="700">Social</text><text x="356" y="618.273625" fill="rgb(89, 103, 125)" font-family="Arial, sans-serif" font-size="12.8px" font-weight="400">Cuidar</text><text x="396.265625" y="618.273625" fill="rgb(89, 103, 125)" font-family="Arial, sans-serif" font-size="12.8px" font-weight="400">de</text><text x="414" y="618.273625" fill="rgb(89, 103, 125)" font-family="Arial, sans-serif" font-size="12.8px" font-weight="400">um</text><text x="435.78125" y="618.273625" fill="rgb(89, 103, 125)" font-family="Arial, sans-serif" font-size="12.8px" font-weight="400">encontro</text><text x="490.171875" y="618.273625" fill="rgb(89, 103, 125)" font-family="Arial, sans-serif" font-size="12.8px" font-weight="400">antes,</text><text x="526.671875" y="618.273625" fill="rgb(89, 103, 125)" font-family="Arial, sans-serif" font-size="12.8px" font-weight="400">durante</text><text x="574.1875" y="618.273625" fill="rgb(89, 103, 125)" font-family="Arial, sans-serif" font-size="12.8px" font-weight="400">e</text><text x="584.390625" y="618.273625" fill="rgb(89, 103, 125)" font-family="Arial, sans-serif" font-size="12.8px" font-weight="400">depois.</text><rect x="1029.609375" y="579.484375" width="37.390625" height="28.9375" rx="20" fill="none" stroke="rgb(227, 232, 240)"/><text x="1039.609375" y="595.666775" fill="rgb(89, 103, 125)" font-family="Arial, sans-serif" font-size="11.84px" font-weight="400">0/2</text><rect x="306" y="710.546875" width="63" height="63" rx="22" fill="rgb(255, 255, 255)" stroke="color(srgb 0.689804 0.757059 0.946471)"/><text x="327" y="743.639525" fill="rgb(29, 78, 216)" font-family="Arial, sans-serif" font-size="18.24px" font-weight="700">07</text><rect x="389" y="677.734375" width="700" height="128.625" rx="14" fill="rgb(255, 255, 255)" stroke="rgb(227, 232, 240)"/><text x="410" y="704.990375" fill="rgb(108, 121, 144)" font-family="Arial, sans-serif" font-size="9.6px" font-weight="600">LIÇÃO</text><text x="443.8125" y="704.990375" fill="rgb(108, 121, 144)" font-family="Arial, sans-serif" font-size="9.6px" font-weight="600">7</text><text x="452.953125" y="704.990375" fill="rgb(108, 121, 144)" font-family="Arial, sans-serif" font-size="9.6px" font-weight="600">·</text><text x="459.25" y="704.990375" fill="rgb(108, 121, 144)" font-family="Arial, sans-serif" font-size="9.6px" font-weight="600">3</text><text x="468.5625" y="704.990375" fill="rgb(108, 121, 144)" font-family="Arial, sans-serif" font-size="9.6px" font-weight="600">MIN</text><text x="410" y="730.838125" fill="rgb(31, 41, 55)" font-family="Arial, sans-serif" font-size="16px" font-weight="650">Um</text><text x="440.640625" y="730.838125" fill="rgb(31, 41, 55)" font-family="Arial, sans-serif" font-size="16px" font-weight="650">convite</text><text x="500.234375" y="730.838125" fill="rgb(31, 41, 55)" font-family="Arial, sans-serif" font-size="16px" font-weight="650">também</text><text x="567.375" y="730.838125" fill="rgb(31, 41, 55)" font-family="Arial, sans-serif" font-size="16px" font-weight="650">precisa</text><text x="624.546875" y="730.838125" fill="rgb(31, 41, 55)" font-family="Arial, sans-serif" font-size="16px" font-weight="650">de</text><text x="647.515625" y="730.838125" fill="rgb(31, 41, 55)" font-family="Arial, sans-serif" font-size="16px" font-weight="650">resposta</text><text x="410" y="756.955075" fill="rgb(89, 103, 125)" font-family="Arial, sans-serif" font-size="13.12px" font-weight="400">Confirmar</text><text x="471.203125" y="756.955075" fill="rgb(89, 103, 125)" font-family="Arial, sans-serif" font-size="13.12px" font-weight="400">presença</text><text x="526.515625" y="756.955075" fill="rgb(89, 103, 125)" font-family="Arial, sans-serif" font-size="13.12px" font-weight="400">e</text><text x="536.984375" y="756.955075" fill="rgb(89, 103, 125)" font-family="Arial, sans-serif" font-size="13.12px" font-weight="400">avisar</text><text x="573.515625" y="756.955075" fill="rgb(89, 103, 125)" font-family="Arial, sans-serif" font-size="13.12px" font-weight="400">de</text><text x="591.6875" y="756.955075" fill="rgb(89, 103, 125)" font-family="Arial, sans-serif" font-size="13.12px" font-weight="400">um</text><text x="614.015625" y="756.955075" fill="rgb(89, 103, 125)" font-family="Arial, sans-serif" font-size="13.12px" font-weight="400">atraso</text><text x="653.21875" y="756.955075" fill="rgb(89, 103, 125)" font-family="Arial, sans-serif" font-size="13.12px" font-weight="400">ajuda</text><text x="688.484375" y="756.955075" fill="rgb(89, 103, 125)" font-family="Arial, sans-serif" font-size="13.12px" font-weight="400">quem</text><text x="725.390625" y="756.955075" fill="rgb(89, 103, 125)" font-family="Arial, sans-serif" font-size="13.12px" font-weight="400">está</text><text x="752.546875" y="756.955075" fill="rgb(89, 103, 125)" font-family="Arial, sans-serif" font-size="13.12px" font-weight="400">a</text><text x="762.8125" y="756.955075" fill="rgb(89, 103, 125)" font-family="Arial, sans-serif" font-size="13.12px" font-weight="400">organizar.</text><text x="410" y="782.578575" fill="rgb(29, 78, 216)" font-family="Arial, sans-serif" font-size="10.72px" font-weight="650">→</text><text x="422.203125" y="782.578575" fill="rgb(29, 78, 216)" font-family="Arial, sans-serif" font-size="10.72px" font-weight="650">Disponível</text><rect x="306" y="869.171875" width="63" height="63" rx="22" fill="rgb(255, 255, 255)" stroke="color(srgb 0.689804 0.757059 0.946471)"/><text x="327" y="902.264525" fill="rgb(29, 78, 216)" font-family="Arial, sans-serif" font-size="18.24px" font-weight="700">08</text><rect x="389" y="836.359375" width="700" height="128.625" rx="14" fill="rgb(255, 255, 255)" stroke="rgb(227, 232, 240)"/><text x="410" y="863.615375" fill="rgb(108, 121, 144)" font-family="Arial, sans-serif" font-size="9.6px" font-weight="600">LIÇÃO</text><text x="443.8125" y="863.615375" fill="rgb(108, 121, 144)" font-family="Arial, sans-serif" font-size="9.6px" font-weight="600">8</text><text x="453.125" y="863.615375" fill="rgb(108, 121, 144)" font-family="Arial, sans-serif" font-size="9.6px" font-weight="600">·</text><text x="459.421875" y="863.615375" fill="rgb(108, 121, 144)" font-family="Arial, sans-serif" font-size="9.6px" font-weight="600">3</text><text x="468.734375" y="863.615375" fill="rgb(108, 121, 144)" font-family="Arial, sans-serif" font-size="9.6px" font-weight="600">MIN</text><text x="410" y="889.463125" fill="rgb(31, 41, 55)" font-family="Arial, sans-serif" font-size="16px" font-weight="650">Ser</text><text x="438.40625" y="889.463125" fill="rgb(31, 41, 55)" font-family="Arial, sans-serif" font-size="16px" font-weight="650">convidado,</text><text x="525.71875" y="889.463125" fill="rgb(31, 41, 55)" font-family="Arial, sans-serif" font-size="16px" font-weight="650">receber</text><text x="586.375" y="889.463125" fill="rgb(31, 41, 55)" font-family="Arial, sans-serif" font-size="16px" font-weight="650">com</text><text x="622.90625" y="889.463125" fill="rgb(31, 41, 55)" font-family="Arial, sans-serif" font-size="16px" font-weight="650">cuidado</text><text x="410" y="915.580075" fill="rgb(89, 103, 125)" font-family="Arial, sans-serif" font-size="13.12px" font-weight="400">Um</text><text x="433.90625" y="915.580075" fill="rgb(89, 103, 125)" font-family="Arial, sans-serif" font-size="13.12px" font-weight="400">encontro</text><text x="489.640625" y="915.580075" fill="rgb(89, 103, 125)" font-family="Arial, sans-serif" font-size="13.12px" font-weight="400">acolhedor</text><text x="551.109375" y="915.580075" fill="rgb(89, 103, 125)" font-family="Arial, sans-serif" font-size="13.12px" font-weight="400">tem</text><text x="577.296875" y="915.580075" fill="rgb(89, 103, 125)" font-family="Arial, sans-serif" font-size="13.12px" font-weight="400">espaço</text><text x="621.46875" y="915.580075" fill="rgb(89, 103, 125)" font-family="Arial, sans-serif" font-size="13.12px" font-weight="400">para</text><text x="650.6875" y="915.580075" fill="rgb(89, 103, 125)" font-family="Arial, sans-serif" font-size="13.12px" font-weight="400">necessidades</text><text x="730.34375" y="915.580075" fill="rgb(89, 103, 125)" font-family="Arial, sans-serif" font-size="13.12px" font-weight="400">e</text><text x="740.796875" y="915.580075" fill="rgb(89, 103, 125)" font-family="Arial, sans-serif" font-size="13.12px" font-weight="400">limites</text><text x="782.109375" y="915.580075" fill="rgb(89, 103, 125)" font-family="Arial, sans-serif" font-size="13.12px" font-weight="400">diferentes.</text><text x="410" y="941.203575" fill="rgb(29, 78, 216)" font-family="Arial, sans-serif" font-size="10.72px" font-weight="650">→</text><text x="422.203125" y="941.203575" fill="rgb(29, 78, 216)" font-family="Arial, sans-serif" font-size="10.72px" font-weight="650">Disponível</text><rect x="1123" y="25" width="260" height="285.75" rx="16" fill="rgb(255, 255, 255)" stroke="rgb(227, 232, 240)"/><text x="1146" y="61.5856" fill="rgb(31, 41, 55)" font-family="Arial, sans-serif" font-size="16.96px" font-weight="700">Cada</text><text x="1187.015625" y="61.5856" fill="rgb(31, 41, 55)" font-family="Arial, sans-serif" font-size="16.96px" font-weight="700">passo</text><text x="1232.875" y="61.5856" fill="rgb(31, 41, 55)" font-family="Arial, sans-serif" font-size="16.96px" font-weight="700">conta.</text><text x="1146" y="103.07554999999999" fill="rgb(89, 103, 125)" font-family="Arial, sans-serif" font-size="10.88px" font-weight="400">0</text><text x="1154.84375" y="103.07554999999999" fill="rgb(89, 103, 125)" font-family="Arial, sans-serif" font-size="10.88px" font-weight="400">de</text><text x="1169.921875" y="103.07554999999999" fill="rgb(89, 103, 125)" font-family="Arial, sans-serif" font-size="10.88px" font-weight="400">24</text><text x="1184.625" y="103.07554999999999" fill="rgb(89, 103, 125)" font-family="Arial, sans-serif" font-size="10.88px" font-weight="400">lições</text><text x="1214.578125" y="103.07554999999999" fill="rgb(89, 103, 125)" font-family="Arial, sans-serif" font-size="10.88px" font-weight="400">concluídas</text><text x="1341.53125" y="103.1955" fill="rgb(31, 41, 55)" font-family="Arial, sans-serif" font-size="12.8px" font-weight="650">0%</text><rect x="1146" y="118.65625" width="214" height="6" rx="6" fill="rgb(237, 241, 247)" stroke="none"/><text x="1146" y="173.98425" fill="rgb(31, 41, 55)" font-family="Arial, sans-serif" font-size="24.8px" font-weight="650">0</text><text x="1146" y="203.235325" fill="rgb(89, 103, 125)" font-family="Arial, sans-serif" font-size="11.52px" font-weight="400">concluídas</text><text x="1227.546875" y="173.98425" fill="rgb(31, 41, 55)" font-family="Arial, sans-serif" font-size="24.8px" font-weight="650">0</text><text x="1227.546875" y="203.235325" fill="rgb(89, 103, 125)" font-family="Arial, sans-serif" font-size="11.52px" font-weight="400">dominadas</text><text x="1146" y="242.6572" fill="rgb(89, 103, 125)" font-family="Arial, sans-serif" font-size="11.52px" font-weight="400">“Dominado”</text><text x="1211.28125" y="242.6572" fill="rgb(89, 103, 125)" font-family="Arial, sans-serif" font-size="11.52px" font-weight="400">significa</text><text x="1255.796875" y="242.6572" fill="rgb(89, 103, 125)" font-family="Arial, sans-serif" font-size="11.52px" font-weight="400">que</text><text x="1278.28125" y="242.6572" fill="rgb(89, 103, 125)" font-family="Arial, sans-serif" font-size="11.52px" font-weight="400">voltaste</text><text x="1321.0625" y="242.6572" fill="rgb(89, 103, 125)" font-family="Arial, sans-serif" font-size="11.52px" font-weight="400">a</text><text x="1330.09375" y="242.6572" fill="rgb(89, 103, 125)" font-family="Arial, sans-serif" font-size="11.52px" font-weight="400">uma</text><text x="1146" y="261.6572" fill="rgb(89, 103, 125)" font-family="Arial, sans-serif" font-size="11.52px" font-weight="400">lição</text><text x="1172.65625" y="261.6572" fill="rgb(89, 103, 125)" font-family="Arial, sans-serif" font-size="11.52px" font-weight="400">concluída</text><text x="1224.46875" y="261.6572" fill="rgb(89, 103, 125)" font-family="Arial, sans-serif" font-size="11.52px" font-weight="400">e</text><text x="1233.65625" y="261.6572" fill="rgb(89, 103, 125)" font-family="Arial, sans-serif" font-size="11.52px" font-weight="400">acertaste</text><text x="1282.59375" y="261.6572" fill="rgb(89, 103, 125)" font-family="Arial, sans-serif" font-size="11.52px" font-weight="400">de</text><text x="1298.5625" y="261.6572" fill="rgb(89, 103, 125)" font-family="Arial, sans-serif" font-size="11.52px" font-weight="400">novo</text><text x="1327.25" y="261.6572" fill="rgb(89, 103, 125)" font-family="Arial, sans-serif" font-size="11.52px" font-weight="400">no</text><text x="1146" y="280.6572" fill="rgb(89, 103, 125)" font-family="Arial, sans-serif" font-size="11.52px" font-weight="400">quiz.</text><text x="1172.953125" y="280.6572" fill="rgb(89, 103, 125)" font-family="Arial, sans-serif" font-size="11.52px" font-weight="400">Podes</text><text x="1206.578125" y="280.6572" fill="rgb(89, 103, 125)" font-family="Arial, sans-serif" font-size="11.52px" font-weight="400">rever</text><text x="1235.3125" y="280.6572" fill="rgb(89, 103, 125)" font-family="Arial, sans-serif" font-size="11.52px" font-weight="400">sempre.</text><rect x="1123" y="330.75" width="260" height="230.671875" rx="16" fill="rgb(239, 246, 255)" stroke="rgb(227, 232, 240)"/><rect x="1146" y="353.75" width="43" height="43" rx="13" fill="rgb(255, 255, 255)" stroke="none"/><svg x="1156" y="363.75" width="23" height="23" viewBox="0 0 24 24" fill="none" stroke="rgb(29, 78, 216)" stroke-width="1.6px" color="rgb(29, 78, 216)"><circle cx="12" cy="12" r="9"></circle><circle cx="12" cy="12" r="5"></circle><circle cx="12" cy="12" r="1"></circle></svg><text x="1146" y="420.5932" fill="rgb(29, 78, 216)" font-family="Arial, sans-serif" font-size="9.12px" font-weight="700">EXPERIMENTA</text><text x="1224.953125" y="420.5932" fill="rgb(29, 78, 216)" font-family="Arial, sans-serif" font-size="9.12px" font-weight="700">NA</text><text x="1244.640625" y="420.5932" fill="rgb(29, 78, 216)" font-family="Arial, sans-serif" font-size="9.12px" font-weight="700">PRÁTICA</text><text x="1146" y="447.1975" fill="rgb(31, 41, 55)" font-family="Arial, sans-serif" font-size="16px" font-weight="650">Encaminhar</text><text x="1232.21875" y="447.1975" fill="rgb(31, 41, 55)" font-family="Arial, sans-serif" font-size="16px" font-weight="650">um</text><text x="1259.296875" y="447.1975" fill="rgb(31, 41, 55)" font-family="Arial, sans-serif" font-size="16px" font-weight="650">problema</text><text x="1146" y="479.111325" fill="rgb(89, 103, 125)" font-family="Arial, sans-serif" font-size="13.12px" font-weight="400">Uma</text><text x="1176.578125" y="479.111325" fill="rgb(89, 103, 125)" font-family="Arial, sans-serif" font-size="13.12px" font-weight="400">pequena</text><text x="1230.859375" y="479.111325" fill="rgb(89, 103, 125)" font-family="Arial, sans-serif" font-size="13.12px" font-weight="400">missão</text><text x="1274.421875" y="479.111325" fill="rgb(89, 103, 125)" font-family="Arial, sans-serif" font-size="13.12px" font-weight="400">para</text><text x="1303.640625" y="479.111325" fill="rgb(89, 103, 125)" font-family="Arial, sans-serif" font-size="13.12px" font-weight="400">testar</text><text x="1146" y="500.111325" fill="rgb(89, 103, 125)" font-family="Arial, sans-serif" font-size="13.12px" font-weight="400">uma</text><text x="1174.984375" y="500.111325" fill="rgb(89, 103, 125)" font-family="Arial, sans-serif" font-size="13.12px" font-weight="400">decisão.</text><text x="1146" y="529.560925" fill="rgb(29, 78, 216)" font-family="Arial, sans-serif" font-size="12.48px" font-weight="600">Abrir</text><text x="1177.8125" y="529.560925" fill="rgb(29, 78, 216)" font-family="Arial, sans-serif" font-size="12.48px" font-weight="600">laboratório</text><svg x="1252.9375" y="519.3125" width="17" height="17" viewBox="0 0 24 24" fill="none" stroke="rgb(29, 78, 216)" stroke-width="1.6px" color="rgb(29, 78, 216)"><path d="M4 12h16m-6-6 6 6-6 6"></path></svg><rect x="1123" y="581.421875" width="260" height="488.8125" rx="16" fill="rgb(255, 255, 255)" stroke="rgb(227, 232, 240)"/><text x="1146" y="615.805875" fill="rgb(31, 41, 55)" font-family="Arial, sans-serif" font-size="14.4px" font-weight="650">O</text><text x="1159.875" y="615.805875" fill="rgb(31, 41, 55)" font-family="Arial, sans-serif" font-size="14.4px" font-weight="650">teu</text><text x="1183.890625" y="615.805875" fill="rgb(31, 41, 55)" font-family="Arial, sans-serif" font-size="14.4px" font-weight="650">caminho</text><text x="1146" y="653.916275" fill="rgb(29, 78, 216)" font-family="Arial, sans-serif" font-size="11.04px" font-weight="400">01</text><text x="1166.90625" y="655.879475" fill="rgb(89, 103, 125)" font-family="Arial, sans-serif" font-size="12.16px" font-weight="400">Viver</text><text x="1197.140625" y="655.879475" fill="rgb(89, 103, 125)" font-family="Arial, sans-serif" font-size="12.16px" font-weight="400">em</text><text x="1217.296875" y="655.879475" fill="rgb(89, 103, 125)" font-family="Arial, sans-serif" font-size="12.16px" font-weight="400">Sociedade</text><text x="1146" y="688.15065" fill="rgb(29, 78, 216)" font-family="Arial, sans-serif" font-size="11.04px" font-weight="400">02</text><text x="1166.90625" y="690.11385" fill="rgb(89, 103, 125)" font-family="Arial, sans-serif" font-size="12.16px" font-weight="400">Civilidade</text><text x="1222.234375" y="690.11385" fill="rgb(89, 103, 125)" font-family="Arial, sans-serif" font-size="12.16px" font-weight="400">e</text><text x="1231.921875" y="690.11385" fill="rgb(89, 103, 125)" font-family="Arial, sans-serif" font-size="12.16px" font-weight="400">Cortesia</text><text x="1146" y="722.385025" fill="rgb(29, 78, 216)" font-family="Arial, sans-serif" font-size="11.04px" font-weight="400">03</text><text x="1166.90625" y="724.348225" fill="rgb(89, 103, 125)" font-family="Arial, sans-serif" font-size="12.16px" font-weight="400">Cavalheirismo</text><text x="1245.015625" y="724.348225" fill="rgb(89, 103, 125)" font-family="Arial, sans-serif" font-size="12.16px" font-weight="400">Contemporâneo</text><text x="1146" y="756.6194" fill="rgb(29, 78, 216)" font-family="Arial, sans-serif" font-size="11.04px" font-weight="400">04</text><text x="1166.90625" y="758.5826" fill="rgb(89, 103, 125)" font-family="Arial, sans-serif" font-size="12.16px" font-weight="400">Etiqueta</text><text x="1214.15625" y="758.5826" fill="rgb(89, 103, 125)" font-family="Arial, sans-serif" font-size="12.16px" font-weight="400">Social</text><text x="1146" y="790.853775" fill="rgb(29, 78, 216)" font-family="Arial, sans-serif" font-size="11.04px" font-weight="400">05</text><text x="1166.90625" y="792.816975" fill="rgb(89, 103, 125)" font-family="Arial, sans-serif" font-size="12.16px" font-weight="400">Etiqueta</text><text x="1214.15625" y="792.816975" fill="rgb(89, 103, 125)" font-family="Arial, sans-serif" font-size="12.16px" font-weight="400">à</text><text x="1223.671875" y="792.816975" fill="rgb(89, 103, 125)" font-family="Arial, sans-serif" font-size="12.16px" font-weight="400">Mesa</text><text x="1146" y="825.08815" fill="rgb(29, 78, 216)" font-family="Arial, sans-serif" font-size="11.04px" font-weight="400">06</text><text x="1166.90625" y="827.05135" fill="rgb(89, 103, 125)" font-family="Arial, sans-serif" font-size="12.16px" font-weight="400">Comunicação</text><text x="1146" y="859.322525" fill="rgb(29, 78, 216)" font-family="Arial, sans-serif" font-size="11.04px" font-weight="400">07</text><text x="1166.90625" y="861.285725" fill="rgb(89, 103, 125)" font-family="Arial, sans-serif" font-size="12.16px" font-weight="400">Limites</text><text x="1207.953125" y="861.285725" fill="rgb(89, 103, 125)" font-family="Arial, sans-serif" font-size="12.16px" font-weight="400">e</text><text x="1217.640625" y="861.285725" fill="rgb(89, 103, 125)" font-family="Arial, sans-serif" font-size="12.16px" font-weight="400">Consentimento</text><text x="1146" y="893.5569" fill="rgb(29, 78, 216)" font-family="Arial, sans-serif" font-size="11.04px" font-weight="400">08</text><text x="1166.90625" y="895.5201" fill="rgb(89, 103, 125)" font-family="Arial, sans-serif" font-size="12.16px" font-weight="400">Espaço</text><text x="1207.625" y="895.5201" fill="rgb(89, 103, 125)" font-family="Arial, sans-serif" font-size="12.16px" font-weight="400">Público</text><text x="1146" y="927.791275" fill="rgb(29, 78, 216)" font-family="Arial, sans-serif" font-size="11.04px" font-weight="400">09</text><text x="1166.90625" y="929.754475" fill="rgb(89, 103, 125)" font-family="Arial, sans-serif" font-size="12.16px" font-weight="400">Respeito</text><text x="1216.359375" y="929.754475" fill="rgb(89, 103, 125)" font-family="Arial, sans-serif" font-size="12.16px" font-weight="400">por</text><text x="1238.203125" y="929.754475" fill="rgb(89, 103, 125)" font-family="Arial, sans-serif" font-size="12.16px" font-weight="400">Trabalhadores</text><text x="1146" y="962.02565" fill="rgb(29, 78, 216)" font-family="Arial, sans-serif" font-size="11.04px" font-weight="400">10</text><text x="1166.90625" y="963.98885" fill="rgb(89, 103, 125)" font-family="Arial, sans-serif" font-size="12.16px" font-weight="400">Solidariedade</text><text x="1146" y="996.260025" fill="rgb(29, 78, 216)" font-family="Arial, sans-serif" font-size="11.04px" font-weight="400">11</text><text x="1166.90625" y="998.223225" fill="rgb(89, 103, 125)" font-family="Arial, sans-serif" font-size="12.16px" font-weight="400">Instituições</text></svg>